<?xml version="1.0" standalone="no"?>
<!DOCTYPE svg PUBLIC "-//W3C//DTD SVG 20010904//EN"
 "http://www.w3.org/TR/2001/REC-SVG-20010904/DTD/svg10.dtd">
<svg version="1.0" xmlns="http://www.w3.org/2000/svg"
 width="448.000000pt" height="424.000000pt" viewBox="0 0 448.000000 424.000000"
 preserveAspectRatio="xMidYMid meet">
<metadata>
Created by potrace 1.16, written by Peter Selinger 2001-2019
</metadata>
<g transform="translate(0.000000,424.000000) scale(0.100000,-0.100000)"
fill="#000000" stroke="none">
<path d="M2125 4023 c-88 -7 -243 -36 -339 -63 -108 -31 -346 -127 -346 -140
0 -4 -11 -11 -24 -14 -31 -8 -192 -114 -275 -181 -139 -113 -324 -321 -387
-435 -10 -19 -24 -40 -31 -47 -19 -21 -119 -232 -148 -313 -89 -252 -127 -573
-94 -810 6 -41 12 -93 15 -115 3 -22 18 -91 35 -153 155 -587 599 -1059 1175
-1251 223 -75 296 -85 574 -85 278 0 351 10 574 85 541 180 969 609 1146 1148
69 209 85 315 85 561 0 258 -19 384 -92 600 -55 163 -190 409 -290 529 -147
177 -325 336 -453 407 -19 10 -40 24 -47 31 -23 21 -235 120 -324 151 -225 79
-514 115 -754 95z m407 -318 c359 -62 662 -237 916 -528 23 -27 42 -50 42 -51
0 -2 21 -34 46 -72 25 -38 57 -91 71 -119 14 -27 31 -53 37 -57 6 -4 8 -8 4
-8 -4 0 6 -28 22 -62 35 -80 74 -208 97 -323 27 -135 24 -425 -5 -561 -66
-309 -196 -549 -416 -770 -219 -219 -455 -348 -763 -416 -83 -19 -128 -22
-303 -22 -174 0 -220 3 -302 21 -236 53 -372 116 -626 288 -46 31 -204 192
-262 266 -300 387 -397 909 -253 1363 14 44 26 86 27 91 4 26 119 247 163 312
142 211 350 395 573 508 150 75 355 136 525 155 101 11 299 4 407 -15z"/>
<path d="M2155 3106 c-22 -7 -53 -18 -68 -24 -16 -7 -37 -12 -48 -12 -12 0
-23 -10 -29 -25 -5 -14 -21 -30 -35 -37 -13 -6 -27 -20 -31 -31 -3 -10 -24
-37 -45 -59 -21 -22 -39 -49 -39 -59 0 -11 -4 -19 -10 -19 -5 0 -10 -18 -10
-39 0 -22 -4 -43 -10 -46 -14 -9 -13 -58 2 -73 7 -7 18 -39 24 -72 7 -32 26
-88 43 -124 17 -35 31 -69 31 -75 0 -6 5 -11 10 -11 6 0 16 -12 23 -27 17 -40
57 -71 97 -78 19 -4 73 -16 120 -27 77 -19 92 -19 165 -8 44 7 96 14 115 15
41 2 118 48 126 73 7 21 11 28 55 94 19 29 42 69 49 88 8 19 25 50 38 68 37
49 27 110 -45 274 -45 104 -62 133 -75 130 -11 -2 -26 11 -42 37 -17 27 -35
42 -54 46 -15 3 -55 12 -89 20 -71 17 -210 18 -268 1z m292 -66 c139 -63 223
-197 223 -356 0 -167 -106 -310 -268 -363 -194 -64 -409 40 -481 234 -56 148
-4 337 118 434 117 93 272 112 408 51z"/>
</g>
</svg>
